<?xml version="1.0" encoding="utf-8"?>
<!-- Generator: Adobe Illustrator 16.0.0, SVG Export Plug-In . SVG Version: 6.00 Build 0)  -->
<!DOCTYPE svg PUBLIC "-//W3C//DTD SVG 1.1//EN" "http://www.w3.org/Graphics/SVG/1.1/DTD/svg11.dtd">
<svg version="1.1" id="图层_2" xmlns="http://www.w3.org/2000/svg" xmlns:xlink="http://www.w3.org/1999/xlink" x="0px" y="0px"
	 width="200px" height="56.683px" viewBox="0 71.659 200 56.683" enable-background="new 0 71.659 200 56.683" xml:space="preserve"
	>
<g>
	<path fill="#48A841" d="M190.184,112.619h-50.197v15.723h57.586v-8.634C197.572,119.707,197.575,112.619,190.184,112.619z
		 M187.742,122.773h-39.377v-5.151c1.668,0,36.72,0,36.72,0c1.054,0,1.841,0.235,2.274,0.681c0.375,0.393,0.383,0.836,0.383,0.887
		V122.773z"/>
	<path fill="#48A841" d="M178.061,102.792l15.973-7.8c1.742-0.802,2.768-2.198,2.785-3.689c0-0.229-0.03-0.465-0.071-0.689
		c-0.351-1.7-1.583-2.848-5.255-2.848h-39.703v-1.712c0-0.693-0.563-1.255-1.255-1.255c-0.323,0-0.606,0.13-0.831,0.331
		l-9.717,8.115v7.583c0,0,9.545-7.392,9.764-7.497c0.24,0,31.93,0,31.93,0c0.553,0,0.786,0.091,0.881,0.146
		c-0.052,0.094-0.215,0.283-0.603,0.458c0,0-12.783,4.978-13.224,5.166c-0.437-0.2-8.42-3.446-8.42-3.446l-9.94,0.022l-2.345,1.84
		c0,0,9.225,3.905,11.949,5.113c0.127,0.056-3.854,2.039-8.371,2.039h-11.621v5.565h14.127c6.01,0,10.975-2.383,11.181-2.485
		c0,0,3.026-1.118,3.425-1.299c0.404,0.188,5.37,1.94,5.37,1.94c0.199,0.084,4.499,1.844,9.851,1.844h13.635v-5.565h-11.283
		C181.461,104.667,178.061,102.792,178.061,102.792z"/>
	<path fill="#48A841" d="M58.119,88.092H45.867c0,0,0.005,2.547,0,3.363H17.718c0.009-0.816,0.02-3.363,0.02-3.363H5.4
		c0,0,0.005,2.547,0,3.363c-0.922,0-5.4,0-5.4,0v5.567c0,0,4.475,0,5.4,0c-0.005,0.911-0.031,5.982-0.031,5.982
		c-0.033,4.396,3.599,6.442,3.76,6.529c0,0,11.953,6.696,13.365,7.583c-2.324,1.458-7.286,3.646-7.286,3.646
		c-0.055,0.031-5.429,1.889-11.137,1.889H0v5.572h12.343c6.485,0,11.91-1.574,15.144-3.559c0,0,3.54-2.199,4.091-2.537
		c0.535,0.346,1.547,0.918,5.24,2.762c3.895,1.943,6.646,3.332,13.129,3.332h12.262v-5.572h-3.914c-5.707,0-7.056-0.717-8.66-1.403
		c-1.603-0.688-7.134-3.5-8.354-4.24c1.423-0.886,12.959-7.487,12.959-7.487c0.127-0.074,3.789-2.119,3.818-6.516
		c0,0-0.005-5.072,0-5.982c0.865,0,4.599,0,4.599,0l0.026-5.567c0,0-3.689,0-4.563,0C58.128,90.639,58.119,88.092,58.119,88.092z
		 M45.867,101.079c-0.02,3.022-2.997,4.873-3.025,4.887c0,0-10.612,5.619-11.197,5.968c-0.58-0.349-11.116-5.976-11.116-5.976
		c-0.02-0.006-2.883-1.856-2.86-4.879c0,0,0.007-3.276,0.011-4.057h28.187C45.855,97.803,45.867,101.079,45.867,101.079z"/>
	<path fill="#48A841" d="M53.718,74.861H37.715v-3.202H23.163v3.202H0.312V86.59h7.344v-5.483h40.723
		c2.789,0,3.689,1.952,3.758,3.267v2.217h10.546v-3.828C62.683,79.075,60.186,74.861,53.718,74.861z"/>
	<path fill="#48A841" d="M191.035,74.861h-16.003v-3.202H160.48v3.202h-22.853V85.72h7.345v-4.612h40.723
		c2.789,0,3.689,1.952,3.759,3.267v0.972H200v-2.583C200,79.075,197.503,74.861,191.035,74.861z"/>
	<path fill="#48A841" d="M123.893,71.659H71.126v47.853c-0.015,2.524-2.048,2.779-2.278,2.803l-2.667,0.166v5.746h8.308
		c0.07,0,7.025-0.149,7.078-8.549c0,0-0.009-26.604,0-27.746c1.083,0,49.537,0,49.537,0V78.969
		C131.104,78.894,131.107,71.659,123.893,71.659z M120.695,86.189H81.566v-8.792c1.072,0,36.583,0,36.583,0
		c1.021,0,1.787,0.247,2.213,0.71c0.367,0.409,0.377,0.861,0.377,0.913C120.738,79.021,120.702,85.213,120.695,86.189z"/>
	<path fill="#48A841" d="M112.967,94.346h-10.82v4.38c-2.248,0-18.138,0-18.138,0v5.747c0,0,15.992,0,18.138,0v5.602
		c-2.015,0-18.138,0-18.138,0v18.268h47.095v-10.958c-0.004-0.086-0.76-7.312-7.975-7.312c0,0-8.439,0-10.162,0v-5.6
		c2.107,0,18.137,0,18.137,0v-5.748c0,0-16.145,0-18.137,0V94.346z M117.971,115.809c1.024,0,1.795,0.242,2.217,0.711
		c0.367,0.4,0.377,0.864,0.373,0.91c0,0,0.004,4.215-0.004,5.17H92.431v-6.791C92.048,115.809,117.971,115.809,117.971,115.809z"/>
</g>
</svg>
